<?xml version="1.0" encoding="utf-8"?>
<!-- Generator: Adobe Illustrator 23.0.1, SVG Export Plug-In . SVG Version: 6.00 Build 0)  -->
<svg version="1.1" id="图层_1" xmlns="http://www.w3.org/2000/svg" xmlns:xlink="http://www.w3.org/1999/xlink" x="0px" y="0px"
	 viewBox="0 0 200 200" style="enable-background:new 0 0 200 200;" xml:space="preserve">
<style type="text/css">
	.st0{fill:#DEE2E6;}
</style>
<path class="st0" d="M156.5,163.2c-14.5-0.3-26.1-12.3-25.9-26.8s12.3-26.1,26.8-25.9c14.4,0.3,25.9,12,25.9,26.3
	C183.2,151.6,171.2,163.4,156.5,163.2z M156.5,121.4l-13.8,15h9.2v18h9.2v-18h9.2L156.5,121.4z M156.3,136.5v0.4H156L156.3,136.5z
	 M163.6,104.9V44.5h-147c-0.1-4.2,3.2-7.7,7.4-7.8c0.2,0,0.4,0,0.5,0h139c0,0,8.2,0.6,8.2,7.8V108c-0.4-0.2-0.8-0.4-1.2-0.6
	C168.4,106.3,166.1,105.5,163.6,104.9L163.6,104.9z M132.8,59.9c0,0,15.7-0.2,15.7,15.1c0,0,1.4,14.7-15.7,15.1
	c0,0-15.3,0.3-15.2-15.1C117.8,66.7,124.5,60,132.8,59.9z M24.6,136l6.9-0.2L62.7,90l31.7,38.4l23.2-23l11.9,11.8
	c-9.5,12.5-8.6,30,2.1,41.4h-107c-4.3,0-7.8-3.5-7.9-7.8V44.5h7.8L24.6,136z"/>
</svg>
