<svg xmlns="http://www.w3.org/2000/svg" width="174" height="131" viewBox="0 0 174 131">
  <defs>
    <style>
      .cls-1 {
        fill: #d4def5;
      }

      .cls-2 {
        fill: #e6ecf8;
      }

      .cls-3 {
        fill: #fff;
      }
    </style>
  </defs>
  <g id="缺省图" transform="translate(-1047 -245.687)">
    <g id="重点媒体" transform="translate(1047 245.687)">
      <g id="组_31" data-name="组 31">
        <path id="路径_30" data-name="路径 30" class="cls-1" d="M112.532,47.209a4.226,4.226,0,0,1,3.293.422,4.327,4.327,0,0,1,2,2.658l17.21,73.682a4.2,4.2,0,0,1-3.083,5.05L61.39,144.842a4.5,4.5,0,0,1-5.069-2.851L36.446,72.5a4.028,4.028,0,0,1-.122-3.573,3.914,3.914,0,0,1,2.752-2.217l73.457-19.586Z" transform="translate(-4.168 -22.29)"/>
        <path id="路径_31" data-name="路径 31" class="cls-2" d="M91.721,154.231a65.964,65.964,0,0,0,49.418-22V60.751a4.158,4.158,0,0,0-1.219-2.956,4.106,4.106,0,0,0-2.926-1.232H60.61a4.075,4.075,0,0,0-2.926,1.232,4.189,4.189,0,0,0-1.219,2.956v83.361a66.434,66.434,0,0,0,35.274,10.119" transform="translate(-6.601 -23.232)"/>
        <path id="路径_32" data-name="路径 32" class="cls-3" d="M69.377,126.512H95.21c.784,0,1.411,1.179,1.411,2.639s-.627,2.64-1.411,2.64H69.377c-.383.035-.749-.229-1.028-.739a3.905,3.905,0,0,1-.4-1.918c.035-1.408.662-2.535,1.429-2.622m.731-15.363h30.309a2.7,2.7,0,0,1,0,5.279H70.109a1.838,1.838,0,0,1-1.55-.739,2.817,2.817,0,0,1-.61-1.918,2.6,2.6,0,0,1,2.16-2.622m32.26-22.49h26.46a2.64,2.64,0,0,1,0,5.279h-26.46a2.479,2.479,0,0,1-1.9-.739,2.548,2.548,0,0,1-.749-1.918,2.638,2.638,0,0,1,2.648-2.622m0-13.2h26.46a2.64,2.64,0,0,1,0,5.28h-26.46a2.479,2.479,0,0,1-1.9-.739,2.55,2.55,0,0,1-.749-1.918,2.813,2.813,0,0,1,2.648-2.623M70.161,74.141H87.127a2.067,2.067,0,0,1,2.195,2.094V93.181a2.114,2.114,0,0,1-.645,1.532,2.028,2.028,0,0,1-1.55.563H70.143a2.067,2.067,0,0,1-2.195-2.095V76.34c0-1.531.662-2.094,2.195-2.094" transform="translate(-7.626 -24.971)"/>
        <path id="路径_33" data-name="路径 33" class="cls-1" d="M156.315,149.779l-7.229-7.3A23.8,23.8,0,1,0,129.316,153.1a23.491,23.491,0,0,0,13.325-4.118l7.229,7.3a4.53,4.53,0,0,0,6.445,0A4.611,4.611,0,0,0,156.315,149.779Z" transform="translate(-11.684 -28.019)"/>
        <path id="路径_34" data-name="路径 34" class="cls-3" d="M111.758,129.636A18.239,18.239,0,1,0,130,111.211,18.337,18.337,0,0,0,111.758,129.636Z" transform="translate(-12.364 -28.641)"/>
        <path id="路径_35" data-name="路径 35" class="cls-1" d="M131.716,119.062a6.526,6.526,0,0,1,4.615,1.584,5.51,5.51,0,0,1,1.743,4.276,6.053,6.053,0,0,1-1.08,3.643,27.576,27.576,0,0,1-2.509,2.341,5.112,5.112,0,0,0-1.2,1.531,4.015,4.015,0,0,0-.47,2.007v.51h-3.153v-.51a6.363,6.363,0,0,1,.557-2.834,15.879,15.879,0,0,1,3.361-3.713l.506-.563a3.551,3.551,0,0,0,.8-2.182,3.417,3.417,0,0,0-.853-2.446,3.315,3.315,0,0,0-2.473-.9,3.276,3.276,0,0,0-2.874,1.25,5.211,5.211,0,0,0-.8,3.08h-3.118A6.851,6.851,0,0,1,126.647,121a6.572,6.572,0,0,1,5.069-1.936Zm-.506,18.408a2.113,2.113,0,0,1,1.568.6,1.975,1.975,0,0,1,.61,1.531,2.106,2.106,0,0,1-.61,1.549,2.325,2.325,0,0,1-1.568.6,1.935,1.935,0,0,1-1.5-.633,2.045,2.045,0,0,1-.645-1.531,2.093,2.093,0,0,1,2.142-2.112Z" transform="translate(-13.771 -29.418)"/>
        <path id="路径_36" data-name="路径 36" class="cls-1" d="M146.181,24.656h-5.034V19.57h-3.467v5.086h-5.035v3.519h5.035v5.068h3.467V28.176h5.034ZM11.252,53.182,9.528,50.789,6.1,53.306,3.6,49.857,1.236,51.6l2.491,3.449L.313,57.564l1.724,2.394,3.414-2.517,2.491,3.466,2.369-1.742L7.82,55.7Z" transform="translate(-0.313 -19.57)"/>
        <path id="路径_37" data-name="路径 37" class="cls-1" d="M189.025,135.187A5.191,5.191,0,1,1,194.164,130,5.175,5.175,0,0,1,189.025,135.187Zm0-8.641a3.432,3.432,0,1,0,3.4,3.432A3.419,3.419,0,0,0,189.025,126.547Z" transform="translate(-20.164 -29.987)"/>
      </g>
    </g>
  </g>
</svg>
